<svg width="342" height="343" version="1.1" xmlns="http://www.w3.org/2000/svg" desc="Created with imagetracer.js version 1.2.6" ><path fill="rgb(255,152,77)" stroke="rgb(255,152,77)" stroke-width="1" opacity="1" d="M 163.5 15 L 180.5 15 L 181.5 16 L 191 16.5 L 180.5 17 L 179.5 16 L 164.5 16 L 163.5 17 L 153.5 17 L 153.5 16 L 162.5 16 L 163.5 15 Z " /><path fill="rgb(255,152,77)" stroke="rgb(255,152,77)" stroke-width="1" opacity="1" d="M 147.5 17 L 152 17.5 L 147.5 18 L 147.5 17 Z " /><path fill="rgb(255,152,77)" stroke="rgb(255,152,77)" stroke-width="1" opacity="1" d="M 193.5 17 L 198 17.5 L 193.5 18 L 193.5 17 Z " /><path fill="rgb(255,152,77)" stroke="rgb(255,152,77)" stroke-width="1" opacity="1" d="M 141.5 18 L 145 18.5 L 141.5 19 L 141.5 18 Z " /><path fill="rgb(255,152,77)" stroke="rgb(255,152,77)" stroke-width="1" opacity="1" d="M 200.5 18 L 203 18.5 L 200.5 19 L 200.5 18 Z " /><path fill="rgb(255,152,77)" stroke="rgb(255,152,77)" stroke-width="1" opacity="1" d="M 136.5 19 L 140 19.5 L 123.5 24 L 123.5 23 L 136.5 19 Z " /><path fill="rgb(255,152,77)" stroke="rgb(255,152,77)" stroke-width="1" opacity="1" d="M 204.5 19 Q 215 19.5 222 23.5 L 219.5 24 L 204.5 20 L 204.5 19 Z " /><path fill="rgb(255,152,77)" stroke="rgb(255,152,77)" stroke-width="1" opacity="1" d="M 119.5 24 L 122 24.5 L 105.5 31 L 105.5 30 L 119.5 24 Z " /><path fill="rgb(255,152,77)" stroke="rgb(255,152,77)" stroke-width="1" opacity="1" d="M 226.5 25 L 250 36.5 L 248.5 36 L 227.5 27 L 226.5 25 Z " /><path fill="rgb(255,152,77)" stroke="rgb(255,152,77)" stroke-width="1" opacity="1" d="M 103.5 31 L 102.5 33 Q 74.3 46.8 55 69.5 L 37.5 94 L 38 92.5 L 45 80.5 L 58 64 L 64 59.5 L 65.5 57 Q 82 41.5 103.5 31 Z " /><path fill="rgb(255,152,77)" stroke="rgb(255,152,77)" stroke-width="1" opacity="1" d="M 251.5 37 Q 271.8 48.8 287 65.5 Q 297.9 77.1 306 91.5 L 303 89.5 L 295 76.5 L 282 61 L 266.5 48 L 252.5 39 L 251.5 37 Z " /><path fill="rgb(255,152,77)" stroke="rgb(255,152,77)" stroke-width="1" opacity="1" d="M 120.5 76 L 224.5 76 L 235 80.5 L 233.5 80 L 224.5 77 L 120.5 77 L 120.5 76 Z " /><path fill="rgb(255,152,77)" stroke="rgb(255,152,77)" stroke-width="1" opacity="1" d="M 115.5 77 L 119 77.5 Q 111.9 77.9 108.5 82 L 110.5 79 L 115.5 77 Z " /><path fill="rgb(255,152,77)" stroke="rgb(255,152,77)" stroke-width="1" opacity="1" d="M 236.5 81 L 241 84.5 L 243 87.5 L 236.5 81 Z " /><path fill="rgb(255,152,77)" stroke="rgb(255,152,77)" stroke-width="1" opacity="1" d="M 106.5 82 L 103 86.5 L 98 97.5 L 96.5 114 L 96 104.5 L 98 93.5 L 106.5 82 Z " /><path fill="rgb(255,152,77)" stroke="rgb(255,152,77)" stroke-width="1" opacity="1" d="M 243.5 89 Q 248.2 92.8 247 102.5 L 246 102.5 L 246 96.5 L 243.5 89 Z " /><path fill="rgb(255,152,77)" stroke="rgb(255,152,77)" stroke-width="1" opacity="1" d="M 306.5 93 L 312 102.5 L 310 101.5 L 306.5 93 Z " /><path fill="rgb(255,152,77)" stroke="rgb(255,152,77)" stroke-width="1" opacity="1" d="M 36.5 95 L 36 96.5 L 30.5 108 L 30 106.5 L 36.5 95 Z " /><path fill="rgb(255,152,77)" stroke="rgb(255,152,77)" stroke-width="1" opacity="1" d="M 119.5 95 L 225.5 95 L 229 97.5 L 231 104.5 L 231 110.5 L 230 110.5 L 229 99.5 L 225.5 96 L 119.5 96 L 117 97 L 115 107.5 L 115 121.5 L 114 122.5 L 114 133.5 L 112.5 141 L 112 133.5 L 113 132.5 L 114 105.5 Q 116.2 104.2 115 99.5 L 117.5 96 L 119.5 95 Z " /><path fill="rgb(255,152,77)" stroke="rgb(255,152,77)" stroke-width="1" opacity="1" d="M 247.5 104 L 248 110.5 L 247 110.5 L 247.5 104 Z " /><path fill="rgb(255,152,77)" stroke="rgb(255,152,77)" stroke-width="1" opacity="1" d="M 312.5 104 L 319 119.5 L 318 119.5 L 312 105.5 L 312.5 104 Z " /><path fill="rgb(255,152,77)" stroke="rgb(255,152,77)" stroke-width="1" opacity="1" d="M 29.5 109 L 30 110.5 L 25.5 121 L 25 119.5 L 29.5 109 Z " /><path fill="rgb(255,152,77)" stroke="rgb(255,152,77)" stroke-width="1" opacity="1" d="M 95.5 115 L 96 122.5 L 95 122.5 L 95.5 115 Z " /><path fill="rgb(255,152,77)" stroke="rgb(255,152,77)" stroke-width="1" opacity="1" d="M 248.5 115 L 249 120.5 L 248 120.5 L 248.5 115 Z " /><path fill="rgb(255,152,77)" stroke="rgb(255,152,77)" stroke-width="1" opacity="1" d="M 231.5 116 L 232 122.5 L 231 122.5 L 231.5 116 Z " /><path fill="rgb(255,152,77)" stroke="rgb(255,152,77)" stroke-width="1" opacity="1" d="M 319.5 121 Q 323.5 128 324 138.5 L 323 138.5 L 319.5 121 Z " /><path fill="rgb(255,152,77)" stroke="rgb(255,152,77)" stroke-width="1" opacity="1" d="M 23.5 125 L 24 127.5 L 19.5 145 L 19 140.5 L 23.5 125 Z " /><path fill="rgb(255,152,77)" stroke="rgb(255,152,77)" stroke-width="1" opacity="1" d="M 94.5 126 L 95 131.5 L 94 131.5 L 94.5 126 Z " /><path fill="rgb(255,152,77)" stroke="rgb(255,152,77)" stroke-width="1" opacity="1" d="M 249.5 126 L 252 139.5 L 252 222.5 L 243.5 235 L 240.5 237 L 248 228.5 L 251 221.5 L 251 141.5 L 250 140.5 L 249.5 126 Z " /><path fill="rgb(255,152,77)" stroke="rgb(255,152,77)" stroke-width="1" opacity="1" d="M 232.5 127 L 233 134.5 L 232 134.5 L 232.5 127 Z " /><path fill="rgb(255,152,77)" stroke="rgb(255,152,77)" stroke-width="1" opacity="1" d="M 93.5 137 L 94 141.5 L 93 142.5 L 93 221.5 L 94 223.5 L 93 223.5 L 92 221.5 L 92 142.5 L 93.5 137 Z " /><path fill="rgb(255,152,77)" stroke="rgb(255,152,77)" stroke-width="1" opacity="1" d="M 233.5 137 L 234 146.5 L 230 149.5 L 233 146.5 L 233.5 137 Z " /><path fill="rgb(255,152,77)" stroke="rgb(255,152,77)" stroke-width="1" opacity="1" d="M 324.5 140 L 325 142.5 L 324 142.5 L 324.5 140 Z " /><path fill="rgb(255,152,77)" stroke="rgb(255,152,77)" stroke-width="1" opacity="1" d="M 112.5 145 L 116 149.5 L 112 146.5 L 112.5 145 Z " /><path fill="rgb(255,152,77)" stroke="rgb(255,152,77)" stroke-width="1" opacity="1" d="M 325.5 145 L 326 150.5 L 325 150.5 L 325.5 145 Z " /><path fill="rgb(255,152,77)" stroke="rgb(255,152,77)" stroke-width="1" opacity="1" d="M 18.5 146 L 19 149.5 L 18 149.5 L 18.5 146 Z " /><path fill="rgb(255,152,77)" stroke="rgb(255,152,77)" stroke-width="1" opacity="1" d="M 118.5 150 L 228 150.5 L 118.5 151 L 118.5 150 Z " /><path fill="rgb(255,152,77)" stroke="rgb(255,152,77)" stroke-width="1" opacity="1" d="M 326.5 152 L 327 161.5 L 328 162.5 L 328 179.5 L 327 180.5 L 326.5 190 L 326 179.5 L 327 178.5 L 327 163.5 L 326 162.5 L 326.5 152 Z " /><path fill="rgb(255,152,77)" stroke="rgb(255,152,77)" stroke-width="1" opacity="1" d="M 17.5 154 L 18 163.5 L 17 163.5 L 17.5 154 Z " /><path fill="rgb(255,152,77)" stroke="rgb(255,152,77)" stroke-width="1" opacity="1" d="M 17.5 178 L 18 187.5 L 17 187.5 L 17.5 178 Z " /><path fill="rgb(255,152,77)" stroke="rgb(255,152,77)" stroke-width="1" opacity="1" d="M 122.5 185 Q 133.6 183.4 136 190.5 L 137 196.5 L 132.5 204 L 126.5 206 L 126.5 205 L 134 201.5 L 136 194.5 L 131.5 187 L 122.5 186 L 122.5 185 Z " /><path fill="rgb(255,152,77)" stroke="rgb(255,152,77)" stroke-width="1" opacity="1" d="M 215.5 185 Q 225.6 183.4 228 189.5 L 230 196.5 L 225.5 204 L 219.5 206 L 219.5 205 L 227 201.5 Q 229.3 198.3 228 191.5 L 224.5 187 L 215.5 186 L 215.5 185 Z " /><path fill="rgb(255,152,77)" stroke="rgb(255,152,77)" stroke-width="1" opacity="1" d="M 212.5 186 L 214 186.5 L 211 188.5 Q 207.4 191.4 209 199.5 Q 211.6 204.4 218 205.5 L 215.5 206 L 210 202.5 L 207 194.5 Q 208.3 188.8 212.5 186 Z " /><path fill="rgb(255,152,77)" stroke="rgb(255,152,77)" stroke-width="1" opacity="1" d="M 118.5 187 L 118 188.5 Q 114.4 191.4 116 199.5 L 118 203 L 125 205.5 L 122.5 206 L 117 202.5 L 114 194.5 L 118.5 187 Z " /><path fill="rgb(255,152,77)" stroke="rgb(255,152,77)" stroke-width="1" opacity="1" d="M 18.5 191 L 19 194.5 L 18 194.5 L 18.5 191 Z " /><path fill="rgb(255,152,77)" stroke="rgb(255,152,77)" stroke-width="1" opacity="1" d="M 325.5 192 L 326 196.5 L 325 196.5 L 325.5 192 Z " /><path fill="rgb(255,152,77)" stroke="rgb(255,152,77)" stroke-width="1" opacity="1" d="M 19.5 197 L 24 216.5 L 23 216.5 L 19 201.5 L 19.5 197 Z " /><path fill="rgb(255,152,77)" stroke="rgb(255,152,77)" stroke-width="1" opacity="1" d="M 324.5 199 L 325 201.5 L 324 201.5 L 324.5 199 Z " /><path fill="rgb(255,152,77)" stroke="rgb(255,152,77)" stroke-width="1" opacity="1" d="M 323.5 203 L 324 206.5 L 319.5 220 L 319 218.5 L 323.5 203 Z " /><path fill="rgb(255,152,77)" stroke="rgb(255,152,77)" stroke-width="1" opacity="1" d="M 25.5 221 L 31 234.5 L 30 234.5 L 25.5 221 Z " /><path fill="rgb(255,152,77)" stroke="rgb(255,152,77)" stroke-width="1" opacity="1" d="M 94.5 225 L 103.5 236 L 113.5 240 L 231.5 240 L 238.5 237 L 237.5 239 L 231.5 241 L 112.5 241 Q 103.1 238.9 98 232.5 L 94 226.5 L 94.5 225 Z " /><path fill="rgb(255,152,77)" stroke="rgb(255,152,77)" stroke-width="1" opacity="1" d="M 317.5 225 L 317 226.5 L 316 231.5 L 307.5 247 L 308 245.5 L 317.5 225 Z " /><path fill="rgb(255,152,77)" stroke="rgb(255,152,77)" stroke-width="1" opacity="1" d="M 31.5 236 L 42 254.5 L 40 253.5 L 31 237.5 L 31.5 236 Z " /><path fill="rgb(255,152,77)" stroke="rgb(255,152,77)" stroke-width="1" opacity="1" d="M 115.5 244 L 138.5 244 L 141 245 L 141 261.5 L 138.5 265 L 135.5 266 L 118.5 266 L 115 263.5 L 114 261.5 L 114 245.5 L 115.5 244 Z M 115 245 L 115 262 L 121 265 Q 131 267 138 264 L 140 261 L 140 247 L 139 245 L 115 245 Z " /><path fill="rgb(255,152,77)" stroke="rgb(255,152,77)" stroke-width="1" opacity="1" d="M 205.5 244 L 228 244.5 L 205.5 245 L 204 246.5 L 204 260.5 L 206.5 264 L 209.5 265 L 224.5 265 L 229 263 L 229.5 261 L 230 262.5 L 225.5 266 L 208.5 266 L 204 262.5 L 203 260.5 L 203 245 L 205.5 244 Z " /><path fill="rgb(255,152,77)" stroke="rgb(255,152,77)" stroke-width="1" opacity="1" d="M 305.5 250 L 305 251.5 Q 296.6 267.1 284.5 279 L 279 283.5 Q 279.8 285.8 277.5 285 Q 265.5 297.5 249.5 306 L 251.5 303 Q 273.8 291.3 289 272.5 L 305.5 250 Z " /><path fill="rgb(255,152,77)" stroke="rgb(255,152,77)" stroke-width="1" opacity="1" d="M 42.5 256 Q 54 273.5 69.5 287 L 97 306.5 L 95.5 306 Q 69.6 292.4 52 270.5 L 42.5 256 Z " /><path fill="rgb(255,152,77)" stroke="rgb(255,152,77)" stroke-width="1" opacity="1" d="M 246.5 306 L 248 306.5 L 237.5 312 L 237.5 311 L 246.5 306 Z " /><path fill="rgb(255,152,77)" stroke="rgb(255,152,77)" stroke-width="1" opacity="1" d="M 98.5 307 L 107 311.5 L 105.5 312 L 99.5 309 L 98.5 307 Z " /><path fill="rgb(255,152,77)" stroke="rgb(255,152,77)" stroke-width="1" opacity="1" d="M 110.5 313 L 122 317.5 L 120.5 318 L 110.5 314 L 110.5 313 Z " /><path fill="rgb(255,152,77)" stroke="rgb(255,152,77)" stroke-width="1" opacity="1" d="M 232.5 313 L 234 313.5 L 222.5 318 L 222.5 317 L 232.5 313 Z " /><path fill="rgb(255,152,77)" stroke="rgb(255,152,77)" stroke-width="1" opacity="1" d="M 126.5 319 L 146 323.5 L 141.5 324 L 126.5 320 L 126.5 319 Z " /><path fill="rgb(255,152,77)" stroke="rgb(255,152,77)" stroke-width="1" opacity="1" d="M 215.5 319 L 218 319.5 Q 210 323.6 198.5 324 L 198.5 323 L 215.5 319 Z " /><path fill="rgb(255,152,77)" stroke="rgb(255,152,77)" stroke-width="1" opacity="1" d="M 147.5 324 L 152 324.5 L 147.5 325 L 147.5 324 Z " /><path fill="rgb(255,152,77)" stroke="rgb(255,152,77)" stroke-width="1" opacity="1" d="M 192.5 324 L 197 324.5 L 192.5 325 L 192.5 324 Z " /><path fill="rgb(255,152,77)" stroke="rgb(255,152,77)" stroke-width="1" opacity="1" d="M 155.5 325 L 166 325.5 L 155.5 326 L 155.5 325 Z " /><path fill="rgb(255,152,77)" stroke="rgb(255,152,77)" stroke-width="1" opacity="1" d="M 179.5 325 L 189 325.5 L 179.5 326 L 179.5 325 Z " /><path fill="rgb(0,0,0)" stroke="rgb(0,0,0)" stroke-width="1" opacity="0" d="M 0 0 L 342 0 L 342 343 L 0 343 L 0 0 Z M 154 3 L 127 8 L 102 17 Q 76 28 58 46 Q 36 65 22 92 Q 13 107 8 127 L 3 154 L 3 190 L 8 217 Q 20 258 46 286 Q 65 307 92 321 Q 108 329 127 335 L 154 340 L 190 340 L 217 335 Q 258 323 286 297 Q 307 278 321 252 Q 329 235 335 217 L 340 190 L 340 154 L 335 127 Q 323 85 297 58 Q 271 28 232 13 L 217 8 L 198 4 Q 191 6 190 3 L 154 3 Z " /><path fill="rgb(255,128,36)" stroke="rgb(255,128,36)" stroke-width="1" opacity="1" d="M 192.5 18 L 195 18.5 L 192.5 19 L 192.5 18 Z " /><path fill="rgb(255,128,36)" stroke="rgb(255,128,36)" stroke-width="1" opacity="1" d="M 258.5 43 L 259.5 45 L 258.5 43 Z " /><path fill="rgb(255,128,36)" stroke="rgb(255,128,36)" stroke-width="1" opacity="1" d="M 280.5 61 L 281.5 63 L 280.5 61 Z " /><path fill="rgb(255,128,36)" stroke="rgb(255,128,36)" stroke-width="1" opacity="1" d="M 43.5 86 L 42.5 88 L 43.5 86 Z " /><path fill="rgb(255,128,36)" stroke="rgb(255,128,36)" stroke-width="1" opacity="1" d="M 31.5 108 L 30.5 110 L 31.5 108 Z " /><path fill="rgb(255,128,36)" stroke="rgb(255,128,36)" stroke-width="1" opacity="1" d="M 231.5 125 L 232 128.5 L 231 128.5 L 231.5 125 Z " /><path fill="rgb(255,128,36)" stroke="rgb(255,128,36)" stroke-width="1" opacity="1" d="M 324.5 148 L 325 150.5 L 324 150.5 L 324.5 148 Z " /><path fill="rgb(255,128,36)" stroke="rgb(255,128,36)" stroke-width="1" opacity="1" d="M 18.5 158 L 19 161.5 L 18 161.5 L 18.5 158 Z " /><path fill="rgb(255,128,36)" stroke="rgb(255,128,36)" stroke-width="1" opacity="1" d="M 18.5 180 L 19 182.5 L 18 182.5 L 18.5 180 Z " /><path fill="rgb(255,128,36)" stroke="rgb(255,128,36)" stroke-width="1" opacity="1" d="M 234.5 311 L 233.5 313 L 234.5 311 Z " /><path fill="rgb(255,128,37)" stroke="rgb(255,128,37)" stroke-width="1" opacity="1" d="M 164.5 16 L 179.5 16 L 180.5 17 L 193 17.5 L 192.5 19 L 199.5 18 L 205.5 21 L 207.5 21 L 225.5 25 L 250.5 37 L 258 42.5 L 258.5 44 L 259.5 43 L 262.5 46 L 266.5 48 L 280 60.5 L 280.5 62 L 282 61.5 L 281.5 63 L 290 70.5 L 300 83.5 L 299.5 85 L 302 86.5 L 310 100.5 L 309.5 102 L 312 103.5 L 319 121.5 L 319 123.5 L 324 139.5 L 325 147.5 L 324 151 L 326 151.5 L 326 162.5 L 327 163.5 L 327 178.5 L 326 179.5 L 326 192 Q 323.3 190.9 324 193.5 L 325 198.5 L 318 224.5 L 315 228.5 L 310 242 L 308 242.5 L 308 244.5 Q 294.6 270.1 273.5 288 L 267.5 293 L 265 293 L 263.5 296 L 247.5 306 L 246 305.5 L 244.5 308 L 234.5 313 Q 233 310.5 231.5 314 L 217.5 319 Q 216 316.5 214.5 320 L 205.5 322 L 203.5 322 L 197.5 324 L 185.5 325 L 182.5 324 Q 177.5 328 166.5 326 L 166.5 324 L 163.5 325 L 161.5 324 L 160.5 325 L 152.5 325 L 125.5 319 L 118.5 315 L 112.5 314 L 110.5 312 L 108.5 312 L 97.5 307 L 88 300.5 L 87.5 299 Q 86 301.5 84.5 298 L 82 296.5 L 81.5 295 Q 80.3 297.2 79 294.5 Q 79.8 291.9 76.5 293 L 55 272.5 L 50 264 L 47 262.5 L 47.5 261 L 45 259.5 L 31 235.5 L 31 232.5 L 29 230.5 L 24 216.5 Q 26.5 215 23 213.5 L 20 198.5 L 20.5 197 Q 17.8 197.6 19 191.5 Q 16.3 189.7 18 183.5 L 19 180.5 L 17 177.5 L 17 164.5 Q 19.6 163.1 19 158.5 Q 16.3 156.7 18 150.5 L 19 145.5 L 21 143.5 L 20 141.5 L 23 128.5 L 25 126.5 L 24 124.5 L 29 111.5 L 31 109.5 L 31 107.5 L 41 88 L 43 87.5 L 42 86.5 L 45 83.5 L 48.5 78 Q 51.1 78.8 50 75.5 L 70.5 54 Q 83.4 42.4 99.5 34 L 101 34.5 Q 100.3 32.3 102.5 33 L 104.5 31 L 123.5 24 L 125 24.5 Q 124.1 21.5 128.5 23 L 138.5 20 L 140 20.5 Q 139.1 17.1 144.5 19 L 149.5 18 Q 151 20.5 152.5 17 L 163.5 17 L 164.5 16 Z M 121 76 L 113 78 L 107 82 Q 100 87 97 97 L 95 126 L 93 128 L 94 130 Q 95 138 92 143 L 92 219 L 91 220 L 99 235 L 101 234 Q 105 239 113 241 L 232 241 L 241 237 Q 242 233 244 236 L 247 231 L 250 229 L 249 228 L 252 223 L 252 140 L 251 139 L 252 137 L 249 126 L 249 118 L 250 117 L 248 115 L 247 96 L 241 85 Q 235 78 225 76 L 121 76 Z M 118 243 L 114 246 L 114 262 L 115 264 L 119 266 L 136 266 L 138 266 L 141 262 L 141 246 L 139 245 L 139 244 L 138 244 L 134 243 L 130 244 L 128 244 L 124 243 L 122 244 L 118 243 Z M 210 243 L 203 245 L 203 261 L 204 263 L 209 266 L 226 266 L 228 265 L 230 263 L 230 245 L 227 244 L 225 244 L 221 243 L 216 244 L 214 244 L 210 243 Z " /><path fill="rgb(255,128,37)" stroke="rgb(255,128,37)" stroke-width="1" opacity="1" d="M 119 96 L 225.5 96 L 229 99.5 L 232 124.5 L 231 128.5 L 233 136.5 L 233 138.5 Q 235 148 229.5 150 L 116.5 150 L 113 146.5 L 112 141.5 L 114 133.5 L 115 107.5 Q 117.8 105.8 116 99.5 L 117.5 97 L 119 97.5 L 119 96 Z " /><path fill="rgb(255,128,37)" stroke="rgb(255,128,37)" stroke-width="1" opacity="1" d="M 121.5 186 Q 131.3 184.3 134 189.5 L 136 196.5 L 132.5 203 L 125.5 206 L 118 202.5 L 118.5 201 L 116 199.5 L 116 197.5 Q 114.5 191.5 117.5 190 L 119 189.5 Q 116.8 188.3 119.5 187 L 121.5 186 Z " /><path fill="rgb(255,128,37)" stroke="rgb(255,128,37)" stroke-width="1" opacity="1" d="M 214.5 186 Q 224.3 184.3 227 189.5 Q 229.3 192.7 228 199.5 L 225.5 203 L 224 202.5 Q 224.8 204.8 222.5 204 L 218.5 206 Q 212 204.5 209 199.5 L 209 197.5 L 209 191.5 L 212.5 187 L 214.5 186 Z " /><path fill="rgb(255,246,227)" stroke="rgb(255,246,227)" stroke-width="1" opacity="0.9568627450980393" d="M 153.5 3 L 189.5 3 Q 191.2 5.8 197.5 4 L 212.5 7 L 231.5 13 Q 270.9 28.7 297 57.5 Q 321.9 84.1 334 123.5 L 340 153.5 L 340 189.5 L 334 219.5 L 321 251.5 Q 306.7 277.7 285.5 297 Q 258.9 321.9 219.5 334 L 189.5 340 L 153.5 340 L 123.5 334 L 91.5 321 Q 65.3 306.7 46 285.5 Q 21.1 258.9 9 219.5 L 3 189.5 L 3 153.5 L 9 123.5 L 22 91.5 Q 36.3 65.3 57.5 46 Q 76 29.5 99.5 18 L 130.5 7 L 153.5 3 Z M 164 15 L 163 16 L 154 16 L 137 19 L 112 27 Q 85 39 66 57 L 64 60 L 58 64 L 39 90 L 30 107 L 21 132 L 17 155 L 17 188 L 22 214 Q 32 247 52 271 Q 71 294 100 309 Q 113 316 130 321 L 156 326 L 189 326 Q 190 323 197 325 L 212 322 L 230 316 L 254 304 Q 267 296 278 285 Q 280 286 279 284 L 285 279 Q 304 259 316 232 L 324 207 L 327 190 L 327 181 L 328 180 L 328 163 L 327 162 L 326 146 L 323 131 L 318 116 Q 307 86 287 66 Q 265 41 233 27 L 213 20 L 198 17 L 182 16 L 181 15 L 164 15 Z " /><path fill="rgb(255,246,227)" stroke="rgb(255,246,227)" stroke-width="1" opacity="0.9568627450980393" d="M 119.5 77 L 225 77.5 L 119.5 78 L 119.5 77 Z " /><path fill="rgb(255,246,227)" stroke="rgb(255,246,227)" stroke-width="1" opacity="0.9568627450980393" d="M 115.5 78 L 118 78.5 L 115.5 79 L 115.5 78 Z " /><path fill="rgb(255,246,227)" stroke="rgb(255,246,227)" stroke-width="1" opacity="0.9568627450980393" d="M 226.5 78 L 229 78.5 L 226.5 79 L 226.5 78 Z " /><path fill="rgb(255,246,227)" stroke="rgb(255,246,227)" stroke-width="1" opacity="0.9568627450980393" d="M 230.5 79 Q 239.1 81.4 243 88.5 L 242.5 90 L 236.5 83 L 230.5 80 L 230.5 79 Z " /><path fill="rgb(255,246,227)" stroke="rgb(255,246,227)" stroke-width="1" opacity="0.9568627450980393" d="M 110.5 80 L 107.5 84 L 104 86.5 L 99.5 95 L 99 93.5 L 107.5 82 L 110.5 80 Z " /><path fill="rgb(255,246,227)" stroke="rgb(255,246,227)" stroke-width="1" opacity="0.9568627450980393" d="M 120.5 94 L 225 94.5 L 120.5 95 L 120.5 94 Z " /><path fill="rgb(255,246,227)" stroke="rgb(255,246,227)" stroke-width="1" opacity="0.9568627450980393" d="M 117.5 95 L 119 95.5 L 116 97.5 L 114.5 105 L 114 99.5 L 117.5 95 Z " /><path fill="rgb(255,246,227)" stroke="rgb(255,246,227)" stroke-width="1" opacity="0.9568627450980393" d="M 226.5 95 L 230 97.5 L 229.5 99 L 227.5 96 L 226.5 95 Z " /><path fill="rgb(255,246,227)" stroke="rgb(255,246,227)" stroke-width="1" opacity="0.9568627450980393" d="M 245.5 96 L 246 100.5 L 245 100.5 L 245.5 96 Z " /><path fill="rgb(255,246,227)" stroke="rgb(255,246,227)" stroke-width="1" opacity="0.9568627450980393" d="M 98.5 97 L 99 101.5 L 98 101.5 L 98.5 97 Z " /><path fill="rgb(255,246,227)" stroke="rgb(255,246,227)" stroke-width="1" opacity="0.9568627450980393" d="M 230.5 100 L 231 103.5 L 230 103.5 L 230.5 100 Z " /><path fill="rgb(255,246,227)" stroke="rgb(255,246,227)" stroke-width="1" opacity="0.9568627450980393" d="M 246.5 103 L 250 135.5 L 249 135.5 L 248 122.5 L 247 121.5 L 247 112.5 L 246 111.5 L 246.5 103 Z " /><path fill="rgb(255,246,227)" stroke="rgb(255,246,227)" stroke-width="1" opacity="0.9568627450980393" d="M 97.5 106 L 98 111.5 L 97 111.5 L 97.5 106 Z " /><path fill="rgb(255,246,227)" stroke="rgb(255,246,227)" stroke-width="1" opacity="0.9568627450980393" d="M 231.5 106 L 232 114.5 L 233 115.5 L 233 125.5 L 234 126.5 L 234 136.5 L 233 136.5 L 231.5 106 Z " /><path fill="rgb(255,246,227)" stroke="rgb(255,246,227)" stroke-width="1" opacity="0.9568627450980393" d="M 113.5 112 L 114 118.5 L 113 118.5 L 113.5 112 Z " /><path fill="rgb(255,246,227)" stroke="rgb(255,246,227)" stroke-width="1" opacity="0.9568627450980393" d="M 96.5 114 L 97 123.5 L 96 124.5 L 96 133.5 L 93.5 147 L 93 142.5 L 94 141.5 L 94 132.5 L 95 131.5 L 96.5 114 Z " /><path fill="rgb(255,246,227)" stroke="rgb(255,246,227)" stroke-width="1" opacity="0.9568627450980393" d="M 112.5 127 L 113 132.5 L 112 132.5 L 112.5 127 Z " /><path fill="rgb(255,246,227)" stroke="rgb(255,246,227)" stroke-width="1" opacity="0.9568627450980393" d="M 111.5 134 L 112 146.5 L 115.5 150 L 118.5 151 L 227.5 151 L 234 146.5 L 234.5 139 L 235 146.5 L 228.5 152 L 117.5 152 L 111 146.5 L 111.5 134 Z " /><path fill="rgb(255,246,227)" stroke="rgb(255,246,227)" stroke-width="1" opacity="0.9568627450980393" d="M 250.5 141 L 251 146.5 L 250 146.5 L 250.5 141 Z " /><path fill="rgb(255,246,227)" stroke="rgb(255,246,227)" stroke-width="1" opacity="0.9568627450980393" d="M 121.5 184 Q 133.3 182.2 136 189.5 L 131.5 186 L 122.5 185 L 116 189.5 L 114.5 194 L 114 191.5 L 119.5 185 L 121.5 184 Z " /><path fill="rgb(255,246,227)" stroke="rgb(255,246,227)" stroke-width="1" opacity="0.9568627450980393" d="M 214.5 184 Q 226.3 182.2 229 189.5 L 230 192.5 L 229 192.5 L 224.5 186 L 215.5 185 L 209 189.5 L 208.5 191 L 208 189.5 L 214.5 184 Z " /><path fill="rgb(255,246,227)" stroke="rgb(255,246,227)" stroke-width="1" opacity="0.9568627450980393" d="M 114.5 196 L 115 198.5 L 114 198.5 L 114.5 196 Z " /><path fill="rgb(255,246,227)" stroke="rgb(255,246,227)" stroke-width="1" opacity="0.9568627450980393" d="M 229.5 197 L 230 199.5 L 225.5 205 Q 222.8 207.8 216.5 207 L 216.5 206 L 221.5 206 L 228 201.5 L 229.5 197 Z " /><path fill="rgb(255,246,227)" stroke="rgb(255,246,227)" stroke-width="1" opacity="0.9568627450980393" d="M 115.5 200 L 118 203.5 L 115 201.5 L 115.5 200 Z " /><path fill="rgb(255,246,227)" stroke="rgb(255,246,227)" stroke-width="1" opacity="0.9568627450980393" d="M 135.5 200 L 136 201.5 L 128.5 207 L 123.5 207 L 123.5 206 L 128.5 206 L 135 201.5 L 135.5 200 Z " /><path fill="rgb(255,246,227)" stroke="rgb(255,246,227)" stroke-width="1" opacity="0.9568627450980393" d="M 208.5 200 L 211 203.5 L 208 201.5 L 208.5 200 Z " /><path fill="rgb(255,246,227)" stroke="rgb(255,246,227)" stroke-width="1" opacity="0.9568627450980393" d="M 119.5 204 L 122 205.5 L 120.5 206 L 119.5 204 Z " /><path fill="rgb(255,246,227)" stroke="rgb(255,246,227)" stroke-width="1" opacity="0.9568627450980393" d="M 212.5 204 L 215 205.5 L 213.5 206 L 212.5 204 Z " /><path fill="rgb(255,246,227)" stroke="rgb(255,246,227)" stroke-width="1" opacity="0.9568627450980393" d="M 93.5 220 L 97 227.5 L 95 226.5 L 93.5 220 Z " /><path fill="rgb(255,246,227)" stroke="rgb(255,246,227)" stroke-width="1" opacity="0.9568627450980393" d="M 249.5 224 L 249 225.5 L 245.5 231 L 247 228.5 L 249.5 224 Z " /><path fill="rgb(255,246,227)" stroke="rgb(255,246,227)" stroke-width="1" opacity="0.9568627450980393" d="M 97.5 229 L 98.5 231 L 97.5 229 Z " /><path fill="rgb(255,246,227)" stroke="rgb(255,246,227)" stroke-width="1" opacity="0.9568627450980393" d="M 100.5 232 L 108 237.5 L 106.5 238 L 100.5 232 Z " /><path fill="rgb(255,246,227)" stroke="rgb(255,246,227)" stroke-width="1" opacity="0.9568627450980393" d="M 242.5 233 L 239.5 237 L 236.5 238 L 236.5 237 L 242.5 233 Z " /><path fill="rgb(255,246,227)" stroke="rgb(255,246,227)" stroke-width="1" opacity="0.9568627450980393" d="M 113.5 239 L 232 239.5 L 113.5 240 L 113.5 239 Z " /><path fill="rgb(255,246,227)" stroke="rgb(255,246,227)" stroke-width="1" opacity="0.9568627450980393" d="M 115 245 L 138.5 245 L 140 246.5 L 139.5 261 L 139 246 L 116 246 L 116 261.5 L 117.5 264 L 115 261.5 L 115 245 Z " /><path fill="rgb(255,246,227)" stroke="rgb(255,246,227)" stroke-width="1" opacity="0.9568627450980393" d="M 205.5 245 L 228.5 245 L 230 246.5 L 230 260.5 L 228.5 263 L 228 246 L 205 246 L 205 260.5 L 204 260.5 L 204 246.5 L 205.5 245 Z " /><path fill="rgb(255,246,227)" stroke="rgb(255,246,227)" stroke-width="1" opacity="0.9568627450980393" d="M 138.5 262 L 137.5 264 L 138.5 262 Z " /><path fill="rgb(255,246,227)" stroke="rgb(255,246,227)" stroke-width="1" opacity="0.9568627450980393" d="M 205.5 262 L 208 263.5 L 206.5 264 L 205.5 262 Z " /><path fill="rgb(255,246,227)" stroke="rgb(255,246,227)" stroke-width="1" opacity="0.9568627450980393" d="M 120.5 264 L 135 264.5 L 120.5 265 L 120.5 264 Z " /><path fill="rgb(255,246,227)" stroke="rgb(255,246,227)" stroke-width="1" opacity="0.9568627450980393" d="M 209.5 264 L 225 264.5 L 209.5 265 L 209.5 264 Z " /><path fill="rgb(255,254,254)" stroke="rgb(255,254,254)" stroke-width="1" opacity="0.996078431372549" d="M 118.5 78 L 225.5 78 Q 235.6 80.4 241 87.5 L 245 95.5 L 248 130.5 L 250 136.5 L 250 146.5 L 251 147.5 L 251 219.5 L 250 223.5 L 243.5 233 L 232.5 239 L 111.5 239 L 99 232 L 93 219.5 L 93 147.5 L 96 133.5 L 99 95.5 L 106.5 84 L 111.5 80 L 118.5 78 Z M 121 94 L 118 95 L 114 100 L 113 127 L 111 135 L 111 147 L 118 152 L 229 152 L 235 147 L 233 116 L 232 115 L 232 107 L 230 98 L 225 94 L 121 94 Z M 122 184 L 120 185 L 114 192 L 115 202 L 124 207 Q 130 208 133 205 L 137 199 L 136 190 Q 133 182 122 184 Z M 215 184 L 213 185 L 207 193 L 208 202 L 217 207 Q 223 208 226 205 L 230 200 Q 231 193 229 190 Q 226 182 215 184 Z " /><path fill="rgb(255,254,254)" stroke="rgb(255,254,254)" stroke-width="1" opacity="0.996078431372549" d="M 116 246 L 139 246 L 139 261.5 L 136.5 264 L 118.5 264 L 116 261.5 L 116 246 Z " /><path fill="rgb(255,254,254)" stroke="rgb(255,254,254)" stroke-width="1" opacity="0.996078431372549" d="M 205 246 L 228 246 L 228 263 L 225.5 264 L 208.5 264 L 205 261.5 L 205 246 Z " /></svg>